<?xml version="1.0" encoding="UTF-8"?>
<svg id="hunger_ui" data-name="hunger_ui" xmlns="http://www.w3.org/2000/svg" viewBox="0 0 11 10">
  <polygon fill="#081820" points="8 5 7 5 7 4 6 4 6 3 2 3 2 4 1 4 1 5 0 5 0 8 1 8 1 9 2 9 2 10 6 10 6 9 7 9 7 8 8 8 8 5"/>
  <rect fill="#081820" x="6" y="2" width="1" height="1"/>
  <rect fill="#081820" x="7" y="1" width="1" height="1"/>
  <rect fill="#081820" x="8" y="4" width="1" height="1"/>
  <rect fill="#081820" x="9" y="3" width="1" height="1"/>
  <polygon fill="#081820" points="8 0 8 1 10 1 10 3 11 3 11 0 8 0"/>
</svg>